# xmcd
#
# Track frame offsets:
#	150
#	12068
#	24704
#	37799
#	50664
#	62816
#	74637
#	87579
#	99919
#	113083
#	124863
#	137127
#	149658
#	163014
#	176518
#	188897
#	201535
#	214365
#	226104
#	239085
#
# Disc length: 3351 seconds
#
# Revision: 1
# Processed by: cddbd v1.5.2PL0 Copyright (c) Steve Scherf et al.
# Submitted via: audiograbber 1.83.01
#
DISCID=2f0d1514
DTITLE=The Bells Of Joy - The Collection
DYEAR=1900
DGENRE=
TTITLE0=I'll Work Lord
TTITLE1=Let's Talk About Jesus
TTITLE2=He's My Friend
TTITLE3=Stop Right Now It's Praying Time
TTITLE4=Echoes From Heaven
TTITLE5=Leak In This Old Building
TTITLE6=How Sweet It Is
TTITLE7=I'm Gonna Press On
TTITLE8=Never Let It Be Said Too Late
TTITLE9=Well Well No No No
TTITLE10=It Will Soon Be Over
TTITLE11=Since Jesus Changed This Heart Of Mine
TTITLE12=Do Lord Remember Me
TTITLE13=Every Day And Every Hour
TTITLE14=Fare Ye Well
TTITLE15=Glory Be To God
TTITLE16=No More Sorrow
TTITLE17=The Lord And I
TTITLE18=There's A Hand Leading Me
TTITLE19=When My Saviour Comes
EXTD=
EXTT0=
EXTT1=
EXTT2=
EXTT3=
EXTT4=
EXTT5=
EXTT6=
EXTT7=
EXTT8=
EXTT9=
EXTT10=
EXTT11=
EXTT12=
EXTT13=
EXTT14=
EXTT15=
EXTT16=
EXTT17=
EXTT18=
EXTT19=
PLAYORDER=
